# xmcd
#
# Track frame offsets:
#	183
#	10020
#	22610
#	34073
#	46155
#	55980
#	73318
#	82125
#	95558
#	108973
#	124195
#	136503
#	148048
#	162633
#	175770
#
# Disc length: 2548
#
# Revision: 1
# Processed by: cddbd v1.5.1PL0 Copyright (c) Steve Scherf et al.
# Submitted via: dBpowerAMP V4.0
# Normalized: r0:DSETVAR1,TDELIM( - )
#
DISCID=c409f20f
DTITLE=Various Artist - Blues Greats Volume 1
DYEAR=1900
DGENRE=Blues
TTITLE0=John Lee Hooker - Dimples
TTITLE1=Howlin' Wolf - Ain't Superstitious
TTITLE2=Billie Holiday - I Got It Bad and That Ain't Good
TTITLE3=Muddy Waters - The Stuff You Gotta Watch
TTITLE4=Roy Milton - Red Light
TTITLE5=Lightnin' Hopkins - I'm Leaving You Now
TTITLE6=Billie Holiday - Please Don't Talk About Me When I'm Gone
TTITLE7=Muddy Waters - She Moves Me
TTITLE8=Elmore James - Dust my Broom
TTITLE9=John Lee Hooker - Tupelo
TTITLE10=Howlin' Wolf - Streamline
TTITLE11=Billie Holiday - Nice Work If You Can Get It
TTITLE12=Gatemouth Moore - I Ain't Mad At You Pretty Baby
TTITLE13=Muddy Waters - Close To You
TTITLE14=Elmore James - I Believe
EXTD=
EXTT0=
EXTT1=
EXTT2=
EXTT3=
EXTT4=
EXTT5=
EXTT6=
EXTT7=
EXTT8=
EXTT9=
EXTT10=
EXTT11=
EXTT12=
EXTT13=
EXTT14=
PLAYORDER=
